<svg width="70" height="53" viewBox="0 0 70 53" fill="none" xmlns="http://www.w3.org/2000/svg">
<path d="M52.1996 29.2C51.5996 29.2 51.0996 29.3 50.5996 29.5C50.0996 29.7 49.5996 29.9 49.2996 30.3C48.8996 30.7 48.5996 31.1 48.3996 31.6C48.1996 32.1 48.0996 32.7 48.0996 33.4C48.0996 34.8 48.4996 35.9 49.2996 36.6C50.0996 37.3 51.0996 37.7 52.1996 37.7C52.8996 37.7 53.4996 37.6 53.9996 37.5C54.4996 37.3 54.8996 37.2 55.2996 37C55.7996 37.3 56.0996 37.7 56.2996 38C56.4996 38.4 56.5996 38.8 56.5996 39.3C56.5996 40.2 56.1996 40.9 55.2996 41.5C54.3996 42 53.1996 42.3 51.5996 42.3C50.1996 42.3 48.8996 42.1 47.6996 41.7C46.4996 41.3 45.5996 40.7 44.6996 39.9C43.8996 39.1 43.1996 38.2 42.7996 37.2C42.2996 36.1 42.0996 35 42.0996 33.7C42.0996 32.2 42.2996 30.9 42.7996 29.8C43.2996 28.7 43.8996 27.8 44.7996 27C45.5996 26.3 46.5996 25.7 47.6996 25.4C48.7996 25 49.9996 24.9 51.1996 24.9C52.7996 24.9 54.0996 25.2 54.9996 25.8C55.8996 26.4 56.2996 27.1 56.2996 28.1C56.2996 28.5 56.1996 28.9 55.9996 29.3C55.7996 29.7 55.5996 30 55.2996 30.3C54.8996 30.1 54.4996 29.9 53.8996 29.8C53.3996 29.3 52.8996 29.2 52.1996 29.2Z" fill="#59595E"/>
<path d="M64.2992 36C64.2992 36.6 64.4992 37 64.8992 37.3C65.2992 37.5 65.7992 37.7 66.4992 37.7C66.7992 37.7 67.1992 37.7 67.5992 37.6C67.9992 37.5 68.2992 37.5 68.5992 37.4C68.7992 37.6 68.9992 37.9 69.0992 38.2C69.1992 38.5 69.2992 38.9 69.2992 39.3C69.2992 40.2 68.9992 40.9 68.2992 41.4C67.6992 41.9 66.4992 42.2 64.8992 42.2C62.8992 42.2 61.3992 41.7 60.2992 40.8C59.1992 39.9 58.6992 38.4 58.6992 36.4V21.9C58.8992 21.8 59.2992 21.8 59.7992 21.7C60.2992 21.6 60.7992 21.6 61.2992 21.6C62.2992 21.6 63.0992 21.8 63.5992 22.1C64.1992 22.5 64.3992 23.2 64.3992 24.3V26.5H68.8992C68.9992 26.7 69.1992 27.1 69.2992 27.4C69.3992 27.8 69.4992 28.2 69.4992 28.6C69.4992 29.4 69.2992 30 68.9992 30.3C68.5992 30.7 68.1992 30.8 67.5992 30.8H64.4992V36H64.2992Z" fill="#59595E"/>
<path d="M51.0999 53C43.4999 53 37.7999 48.2 32.0999 43.5C24.1999 36.9 16.5999 30.6 3.69989 36.8C2.89989 37.2 1.99989 37.1 1.39989 36.5C0.699888 36 0.399887 35.1 0.599887 34.3C2.49989 24.4 12.1999 5.1 12.5999 4.3C12.8999 3.8 13.2999 3.4 13.8999 3.2C42.9999 -6.4 52.3999 16.5 52.4999 16.8C52.9999 18 52.3999 19.3 51.1999 19.7C50.0999 20.2 48.7999 19.6 48.2999 18.4C47.9999 17.8 40.3999 -0.199996 16.1999 7.3C14.5999 10.5 8.79989 22.6 6.09989 31.1C19.1999 26.9 27.5999 33.9 35.0999 40.1C41.9999 45.9 47.9999 50.8 56.9999 47.4C58.1999 47 59.4999 47.5 59.8999 48.7C60.2999 49.9 59.7999 51.2 58.5999 51.6C55.8999 52.6 53.3999 53 51.0999 53Z" fill="#00CC60"/>
<path d="M31.3001 22.6C30.7001 22.2 30.2001 21.7 29.8001 21.3C29.4001 20.9 29.0001 20.5 28.7001 20C28.4001 19.5 28.3001 19.1 28.2001 18.5C28.1001 18 28.2001 17.4 28.5001 16.8C28.9001 15.8 29.5001 15.1 30.3001 14.6C31.1001 14.1 32.2001 14 33.4001 14.2L34.0001 12.4C34.1001 12.4 34.4001 12.5 34.6001 12.5C34.9001 12.6 35.2001 12.6 35.5001 12.7C36.1001 12.9 36.5001 13.2 36.7001 13.5C36.9001 13.8 37.0001 14.3 36.7001 14.9L36.6001 15.2C37.5001 15.6 38.1001 16.1 38.5001 16.7C38.9001 17.2 39.0001 17.8 38.8001 18.4C38.7001 18.8 38.5001 19.1 38.2001 19.3C37.9001 19.5 37.6001 19.7 37.3001 19.8C37.1001 19.5 36.7001 19.2 36.2001 18.8C35.7001 18.5 35.2001 18.2 34.5001 17.9C33.8001 17.7 33.3001 17.6 33.0001 17.7C32.6001 17.8 32.4001 17.9 32.3001 18.2C32.2001 18.4 32.3001 18.6 32.4001 18.8C32.5001 19 32.8001 19.2 33.1001 19.5L34.1001 20.3C35.3001 21.2 36.2001 22.1 36.6001 23.1C37.1001 24 37.1001 25.1 36.7001 26.2C36.3001 27.2 35.7001 27.9 34.9001 28.4C34.0001 28.9 33.0001 29 31.7001 28.8L31.1001 30.5C31.0001 30.5 30.7001 30.4 30.5001 30.4C30.2001 30.3 29.9001 30.3 29.6001 30.2C29.0001 30 28.6001 29.7 28.4001 29.4C28.2001 29.1 28.1001 28.6 28.4001 28L28.5001 27.8C28.0001 27.6 27.6001 27.3 27.2001 27C26.8001 26.7 26.5001 26.4 26.3001 26.1C26.1001 25.8 25.9001 25.5 25.8001 25.1C25.7001 24.8 25.7001 24.4 25.9001 24.1C26.1001 23.7 26.3001 23.4 26.7001 23.2C27.1001 23 27.4001 22.9 27.7001 22.8C28.0001 23.3 28.4001 23.7 28.9001 24.2C29.4001 24.6 30.0001 25 30.7001 25.2C31.4001 25.5 31.9001 25.5 32.3001 25.4C32.7001 25.3 32.9001 25.1 33.0001 24.8C33.1001 24.5 33.1001 24.2 32.9001 24C32.7001 23.8 32.4001 23.5 32.1001 23.2L31.3001 22.6Z" fill="#00CC60"/>
</svg>
