<?xml version="1.0" encoding="utf-8"?>
<!-- Generator: Adobe Illustrator 23.0.1, SVG Export Plug-In . SVG Version: 6.00 Build 0)  -->
<svg version="1.1" id="Capa_1" xmlns="http://www.w3.org/2000/svg" xmlns:xlink="http://www.w3.org/1999/xlink" x="0px" y="0px"
	 viewBox="0 0 158 62" style="enable-background:new 0 0 158 62;" xml:space="preserve">
<style type="text/css">
	.st0{fill:#FFFFFF;}
</style>
<g>
	<g>
		<g>
			<path class="st0" d="M56.8,33.3c-0.6,0-1.1,0.1-1.6,0.3c-0.5,0.2-1,0.5-1.4,0.8c-0.4,0.4-0.7,0.8-0.9,1.3
				c-0.2,0.5-0.3,1.2-0.3,1.9c0,1.4,0.4,2.5,1.2,3.2c0.8,0.7,1.8,1.1,3,1.1c0.7,0,1.3-0.1,1.8-0.2c0.5-0.2,1-0.3,1.4-0.5
				c0.5,0.3,0.8,0.7,1,1.1c0.2,0.4,0.3,0.8,0.3,1.4c0,0.9-0.5,1.7-1.4,2.2c-0.9,0.5-2.2,0.8-3.7,0.8c-1.5,0-2.8-0.2-4-0.6
				c-1.2-0.4-2.2-1-3-1.8c-0.8-0.8-1.5-1.7-2-2.8c-0.5-1.1-0.7-2.3-0.7-3.6c0-1.5,0.2-2.9,0.7-4c0.5-1.1,1.2-2.1,2-2.8
				c0.9-0.7,1.8-1.3,3-1.7c1.1-0.4,2.3-0.6,3.6-0.6c1.7,0,2.9,0.3,3.9,0.9c0.9,0.6,1.4,1.4,1.4,2.3c0,0.4-0.1,0.8-0.3,1.2
				c-0.2,0.4-0.5,0.7-0.7,1c-0.4-0.2-0.9-0.4-1.4-0.5C58,33.3,57.4,33.3,56.8,33.3z"/>
			<path class="st0" d="M69.1,40.2c0,0.6,0.2,1,0.6,1.3c0.4,0.3,0.9,0.4,1.6,0.4c0.3,0,0.7,0,1.1-0.1c0.4-0.1,0.7-0.1,1-0.2
				c0.2,0.3,0.4,0.5,0.5,0.8c0.2,0.3,0.2,0.7,0.2,1.1c0,0.9-0.3,1.6-1,2.2c-0.7,0.6-1.8,0.8-3.5,0.8c-2,0-3.6-0.5-4.7-1.4
				c-1.1-0.9-1.6-2.4-1.6-4.5V25.8c0.3-0.1,0.6-0.1,1.1-0.2c0.5-0.1,1-0.1,1.5-0.1c1,0,1.8,0.2,2.4,0.5c0.6,0.4,0.8,1.1,0.8,2.3v2.2
				h4.5c0.1,0.3,0.3,0.6,0.4,1c0.1,0.4,0.2,0.8,0.2,1.3c0,0.8-0.2,1.4-0.5,1.8c-0.4,0.4-0.8,0.5-1.4,0.5h-3.2V40.2z"/>
			<path class="st0" d="M90.7,28.6c1.4,0,2.7,0.2,3.9,0.5c1.2,0.4,2.2,0.9,3.1,1.6c0.9,0.7,1.5,1.7,2,2.8c0.5,1.1,0.7,2.5,0.7,4
				c0,1.5-0.2,2.8-0.6,3.9c-0.4,1.1-1,2-1.8,2.8c-0.8,0.8-1.7,1.3-2.8,1.7c-1.1,0.4-2.3,0.6-3.6,0.6c-1,0-1.9-0.2-2.8-0.5v5.8
				c-0.2,0.1-0.6,0.1-1.1,0.2c-0.5,0.1-1,0.1-1.6,0.1c-0.5,0-1,0-1.4-0.1c-0.4-0.1-0.7-0.2-1-0.4c-0.3-0.2-0.5-0.5-0.6-0.8
				C83,50.4,83,50,83,49.4V32.7c0-0.6,0.1-1.1,0.4-1.5c0.3-0.4,0.6-0.8,1.1-1.1c0.7-0.5,1.6-0.8,2.7-1.1
				C88.2,28.7,89.4,28.6,90.7,28.6z M90.8,41.9c2.4,0,3.6-1.4,3.6-4.3c0-1.5-0.3-2.6-0.9-3.3c-0.6-0.7-1.4-1.1-2.6-1.1
				c-0.4,0-0.8,0.1-1.2,0.2c-0.3,0.1-0.6,0.2-0.9,0.4v7.6c0.3,0.1,0.6,0.3,0.9,0.3C90,41.8,90.4,41.9,90.8,41.9z"/>
			<path class="st0" d="M109.2,28.6c1.2,0,2.4,0.1,3.4,0.4c1,0.3,1.9,0.6,2.6,1.2c0.7,0.5,1.3,1.2,1.7,2c0.4,0.8,0.6,1.7,0.6,2.8
				v7.8c0,0.6-0.2,1.1-0.5,1.5c-0.3,0.4-0.7,0.7-1.2,1c-1.5,0.9-3.6,1.4-6.3,1.4c-1.2,0-2.3-0.1-3.3-0.3c-1-0.2-1.8-0.6-2.5-1
				c-0.7-0.5-1.2-1.1-1.6-1.8c-0.4-0.7-0.6-1.5-0.6-2.5c0-1.6,0.5-2.8,1.4-3.7c0.9-0.9,2.4-1.4,4.4-1.6l4.5-0.5v-0.2
				c0-0.7-0.3-1.2-0.9-1.4c-0.6-0.3-1.4-0.4-2.5-0.4c-0.9,0-1.7,0.1-2.6,0.3c-0.8,0.2-1.6,0.4-2.3,0.7c-0.3-0.2-0.6-0.5-0.8-1
				c-0.2-0.4-0.3-0.9-0.3-1.3c0-0.6,0.1-1.1,0.4-1.4c0.3-0.4,0.7-0.7,1.3-0.9c0.7-0.3,1.5-0.4,2.4-0.6
				C107.5,28.7,108.4,28.6,109.2,28.6z M109.5,42.2c0.4,0,0.8,0,1.3-0.1c0.5-0.1,0.8-0.2,1.1-0.3V39l-2.5,0.2
				c-0.6,0-1.2,0.2-1.6,0.4c-0.4,0.2-0.6,0.6-0.6,1c0,0.5,0.2,0.8,0.5,1.1C108,42.1,108.6,42.2,109.5,42.2z"/>
			<path class="st0" d="M128.3,28.6c1.3,0,2.5,0.2,3.6,0.5c1.1,0.3,2,0.8,2.7,1.3c0.5,0.3,0.8,0.7,1.1,1.1c0.3,0.4,0.4,0.9,0.4,1.5
				v12.1c0,1.2-0.2,2.3-0.7,3.2c-0.5,0.9-1.1,1.6-1.9,2.2c-0.8,0.6-1.7,1-2.8,1.3c-1.1,0.3-2.2,0.4-3.5,0.4c-2.1,0-3.8-0.3-5-0.8
				c-1.2-0.6-1.8-1.5-1.8-2.8c0-0.5,0.1-1,0.3-1.4c0.2-0.4,0.5-0.7,0.7-0.9c0.7,0.4,1.4,0.7,2.3,0.9c0.8,0.3,1.7,0.4,2.6,0.4
				c1.2,0,2.2-0.2,3-0.6c0.7-0.4,1.1-1.1,1.1-2v-0.6c-0.9,0.4-2.1,0.6-3.5,0.6c-1,0-2-0.2-3-0.5c-0.9-0.3-1.8-0.8-2.5-1.5
				c-0.7-0.7-1.3-1.5-1.7-2.5c-0.4-1-0.6-2.3-0.6-3.7c0-1.4,0.2-2.6,0.7-3.7c0.5-1,1.1-1.9,1.9-2.6c0.8-0.7,1.7-1.2,2.8-1.5
				C125.8,28.8,127,28.6,128.3,28.6z M130.5,33.6c-0.2-0.1-0.4-0.2-0.7-0.3c-0.3-0.1-0.7-0.1-1.2-0.1c-1.1,0-2,0.3-2.5,1
				c-0.6,0.6-0.9,1.5-0.9,2.7c0,1.3,0.3,2.3,0.9,2.9c0.6,0.6,1.3,0.9,2.2,0.9c0.9,0,1.7-0.2,2.3-0.7V33.6z"/>
			<path class="st0" d="M145.7,28.6c1.2,0,2.4,0.1,3.4,0.4c1,0.3,1.9,0.6,2.6,1.2c0.7,0.5,1.3,1.2,1.7,2c0.4,0.8,0.6,1.7,0.6,2.8
				v7.8c0,0.6-0.2,1.1-0.5,1.5c-0.3,0.4-0.7,0.7-1.2,1c-1.5,0.9-3.6,1.4-6.3,1.4c-1.2,0-2.3-0.1-3.3-0.3c-1-0.2-1.8-0.6-2.5-1
				c-0.7-0.5-1.2-1.1-1.6-1.8c-0.4-0.7-0.6-1.5-0.6-2.5c0-1.6,0.5-2.8,1.4-3.7c0.9-0.9,2.4-1.4,4.4-1.6l4.5-0.5v-0.2
				c0-0.7-0.3-1.2-0.9-1.4c-0.6-0.3-1.4-0.4-2.5-0.4c-0.9,0-1.7,0.1-2.6,0.3c-0.8,0.2-1.6,0.4-2.3,0.7c-0.3-0.2-0.6-0.5-0.8-1
				c-0.2-0.4-0.3-0.9-0.3-1.3c0-0.6,0.1-1.1,0.4-1.4c0.3-0.4,0.7-0.7,1.3-0.9c0.7-0.3,1.5-0.4,2.4-0.6
				C144,28.7,144.9,28.6,145.7,28.6z M146,42.2c0.4,0,0.8,0,1.3-0.1c0.5-0.1,0.8-0.2,1.1-0.3V39l-2.5,0.2c-0.6,0-1.2,0.2-1.6,0.4
				c-0.4,0.2-0.6,0.6-0.6,1c0,0.5,0.2,0.8,0.5,1.1C144.5,42.1,145.1,42.2,146,42.2z"/>
		</g>
	</g>
	<g>
		<g>
			<g>
				<path class="st0" d="M55.6,57.6c-7.7,0-13.6-4.9-19.3-9.7c-8.1-6.7-15.8-13.1-29-6.8c-0.8,0.4-1.7,0.3-2.4-0.3
					c-0.7-0.5-1-1.4-0.8-2.2C6,28.5,15.9,8.8,16.3,8c0.3-0.5,0.7-0.9,1.3-1.1C47.3-2.9,56.9,20.4,57,20.7c0.5,1.2-0.1,2.5-1.3,3
					c-1.2,0.5-2.5-0.1-3-1.3c-0.3-0.8-8-19.1-32.8-11.5c-1.6,3.3-7.6,15.6-10.3,24.3C23,30.9,31.6,38,39.2,44.4
					c7.1,5.9,13.2,11,22.4,7.4c1.2-0.5,2.5,0.1,3,1.3c0.5,1.2-0.1,2.5-1.3,3C60.5,57.1,58,57.6,55.6,57.6z"/>
			</g>
		</g>
		<g>
			<path class="st0" d="M35.4,26.5c-0.6-0.5-1.1-0.9-1.5-1.3c-0.4-0.4-0.8-0.9-1.1-1.3c-0.3-0.5-0.4-1-0.5-1.5
				c-0.1-0.5,0-1.1,0.3-1.8c0.4-1,1-1.7,1.8-2.2c0.9-0.5,1.9-0.6,3.2-0.5l0.6-1.8c0.1,0,0.4,0.1,0.7,0.1c0.3,0.1,0.6,0.1,0.9,0.2
				c0.6,0.2,1,0.5,1.2,0.8c0.3,0.3,0.3,0.8,0,1.4l-0.1,0.3c0.9,0.4,1.5,0.9,2,1.5c0.4,0.6,0.5,1.1,0.3,1.8c-0.1,0.4-0.3,0.7-0.6,0.9
				c-0.3,0.2-0.6,0.4-0.9,0.5c-0.2-0.3-0.6-0.7-1.1-1c-0.5-0.4-1.1-0.6-1.7-0.9c-0.7-0.2-1.2-0.3-1.6-0.2c-0.4,0.1-0.6,0.3-0.7,0.5
				c-0.1,0.2,0,0.4,0.1,0.6c0.1,0.2,0.4,0.4,0.7,0.7l1,0.8c1.2,0.9,2.1,1.9,2.6,2.8c0.5,1,0.5,2,0.1,3.2c-0.4,1-1,1.7-1.9,2.2
				c-0.9,0.5-2,0.6-3.3,0.4l-0.6,1.8c-0.1,0-0.4-0.1-0.7-0.1c-0.3-0.1-0.6-0.1-0.9-0.2c-0.6-0.2-1-0.5-1.2-0.8
				c-0.3-0.3-0.3-0.8,0-1.4l0.1-0.2c-0.5-0.2-1-0.5-1.3-0.8c-0.4-0.3-0.7-0.6-0.9-0.9c-0.2-0.3-0.4-0.7-0.5-1
				c-0.1-0.3-0.1-0.7,0.1-1c0.2-0.4,0.4-0.7,0.8-1c0.4-0.2,0.7-0.3,1.1-0.4c0.3,0.5,0.7,0.9,1.2,1.4c0.5,0.5,1.1,0.8,1.8,1.1
				c0.7,0.3,1.3,0.3,1.6,0.2c0.4-0.1,0.6-0.3,0.7-0.6c0.1-0.3,0.1-0.6-0.1-0.8c-0.2-0.2-0.5-0.5-0.8-0.8L35.4,26.5z"/>
		</g>
	</g>
</g>
</svg>
