<?xml version="1.0" encoding="utf-8"?>
<!-- Generator: Adobe Illustrator 23.0.1, SVG Export Plug-In . SVG Version: 6.00 Build 0)  -->
<svg version="1.1" id="Capa_1" xmlns="http://www.w3.org/2000/svg" xmlns:xlink="http://www.w3.org/1999/xlink" x="0px" y="0px"
	 viewBox="0 0 158 62" style="enable-background:new 0 0 158 62;" xml:space="preserve">
<style type="text/css">
	.st0{fill:#FFFFFF;}
	.st1{fill:#59595E;}
	.st2{fill:#00CC60;}
</style>
<g>
	<g>
		<g>
			<path class="st0" d="M-110.2,33.3c-0.6,0-1.1,0.1-1.6,0.3c-0.5,0.2-1,0.5-1.4,0.8c-0.4,0.4-0.7,0.8-0.9,1.3
				c-0.2,0.5-0.3,1.2-0.3,1.9c0,1.4,0.4,2.5,1.2,3.2c0.8,0.7,1.8,1.1,3,1.1c0.7,0,1.3-0.1,1.8-0.2c0.5-0.2,1-0.3,1.4-0.5
				c0.5,0.3,0.8,0.7,1,1.1c0.2,0.4,0.3,0.8,0.3,1.4c0,0.9-0.5,1.7-1.4,2.2c-0.9,0.5-2.2,0.8-3.7,0.8c-1.5,0-2.8-0.2-4-0.6
				c-1.2-0.4-2.2-1-3-1.8c-0.8-0.8-1.5-1.7-2-2.8c-0.5-1.1-0.7-2.3-0.7-3.6c0-1.5,0.2-2.9,0.7-4c0.5-1.1,1.2-2.1,2-2.8
				c0.9-0.7,1.8-1.3,3-1.7c1.1-0.4,2.3-0.6,3.6-0.6c1.7,0,2.9,0.3,3.9,0.9c0.9,0.6,1.4,1.4,1.4,2.3c0,0.4-0.1,0.8-0.3,1.2
				c-0.2,0.4-0.5,0.7-0.7,1c-0.4-0.2-0.9-0.4-1.4-0.5C-109,33.3-109.6,33.3-110.2,33.3z"/>
			<path class="st0" d="M-97.9,40.2c0,0.6,0.2,1,0.6,1.3c0.4,0.3,0.9,0.4,1.6,0.4c0.3,0,0.7,0,1.1-0.1c0.4-0.1,0.7-0.1,1-0.2
				c0.2,0.3,0.4,0.5,0.5,0.8c0.2,0.3,0.2,0.7,0.2,1.1c0,0.9-0.3,1.6-1,2.2c-0.7,0.6-1.8,0.8-3.5,0.8c-2,0-3.6-0.5-4.7-1.4
				c-1.1-0.9-1.6-2.4-1.6-4.5V25.8c0.3-0.1,0.6-0.1,1.1-0.2c0.5-0.1,1-0.1,1.5-0.1c1,0,1.8,0.2,2.4,0.5c0.6,0.4,0.8,1.1,0.8,2.3v2.2
				h4.5c0.1,0.3,0.3,0.6,0.4,1c0.1,0.4,0.2,0.8,0.2,1.3c0,0.8-0.2,1.4-0.5,1.8c-0.4,0.4-0.8,0.5-1.4,0.5h-3.2V40.2z"/>
			<path class="st0" d="M-76.3,28.6c1.4,0,2.7,0.2,3.9,0.5c1.2,0.4,2.2,0.9,3.1,1.6c0.9,0.7,1.5,1.7,2,2.8c0.5,1.1,0.7,2.5,0.7,4
				c0,1.5-0.2,2.8-0.6,3.9c-0.4,1.1-1,2-1.8,2.8c-0.8,0.8-1.7,1.3-2.8,1.7c-1.1,0.4-2.3,0.6-3.6,0.6c-1,0-1.9-0.2-2.8-0.5v5.8
				c-0.2,0.1-0.6,0.1-1.1,0.2c-0.5,0.1-1,0.1-1.6,0.1c-0.5,0-1,0-1.4-0.1c-0.4-0.1-0.7-0.2-1-0.4c-0.3-0.2-0.5-0.5-0.6-0.8
				C-84,50.4-84,50-84,49.4V32.7c0-0.6,0.1-1.1,0.4-1.5c0.3-0.4,0.6-0.8,1.1-1.1c0.7-0.5,1.6-0.8,2.7-1.1
				C-78.8,28.7-77.6,28.6-76.3,28.6z M-76.2,41.9c2.4,0,3.6-1.4,3.6-4.3c0-1.5-0.3-2.6-0.9-3.3c-0.6-0.7-1.4-1.1-2.6-1.1
				c-0.4,0-0.8,0.1-1.2,0.2c-0.3,0.1-0.6,0.2-0.9,0.4v7.6c0.3,0.1,0.6,0.3,0.9,0.3C-77,41.8-76.6,41.9-76.2,41.9z"/>
			<path class="st0" d="M-57.8,28.6c1.2,0,2.4,0.1,3.4,0.4c1,0.3,1.9,0.6,2.6,1.2c0.7,0.5,1.3,1.2,1.7,2c0.4,0.8,0.6,1.7,0.6,2.8
				v7.8c0,0.6-0.2,1.1-0.5,1.5c-0.3,0.4-0.7,0.7-1.2,1c-1.5,0.9-3.6,1.4-6.3,1.4c-1.2,0-2.3-0.1-3.3-0.3c-1-0.2-1.8-0.6-2.5-1
				c-0.7-0.5-1.2-1.1-1.6-1.8c-0.4-0.7-0.6-1.5-0.6-2.5c0-1.6,0.5-2.8,1.4-3.7c0.9-0.9,2.4-1.4,4.4-1.6l4.5-0.5v-0.2
				c0-0.7-0.3-1.2-0.9-1.4c-0.6-0.3-1.4-0.4-2.5-0.4c-0.9,0-1.7,0.1-2.6,0.3c-0.8,0.2-1.6,0.4-2.3,0.7c-0.3-0.2-0.6-0.5-0.8-1
				c-0.2-0.4-0.3-0.9-0.3-1.3c0-0.6,0.1-1.1,0.4-1.4c0.3-0.4,0.7-0.7,1.3-0.9c0.7-0.3,1.5-0.4,2.4-0.6
				C-59.5,28.7-58.6,28.6-57.8,28.6z M-57.5,42.2c0.4,0,0.8,0,1.3-0.1c0.5-0.1,0.8-0.2,1.1-0.3V39l-2.5,0.2c-0.6,0-1.2,0.2-1.6,0.4
				c-0.4,0.2-0.6,0.6-0.6,1c0,0.5,0.2,0.8,0.5,1.1C-59,42.1-58.4,42.2-57.5,42.2z"/>
			<path class="st0" d="M-38.7,28.6c1.3,0,2.5,0.2,3.6,0.5c1.1,0.3,2,0.8,2.7,1.3c0.5,0.3,0.8,0.7,1.1,1.1c0.3,0.4,0.4,0.9,0.4,1.5
				v12.1c0,1.2-0.2,2.3-0.7,3.2c-0.5,0.9-1.1,1.6-1.9,2.2c-0.8,0.6-1.7,1-2.8,1.3c-1.1,0.3-2.2,0.4-3.5,0.4c-2.1,0-3.8-0.3-5-0.8
				c-1.2-0.6-1.8-1.5-1.8-2.8c0-0.5,0.1-1,0.3-1.4c0.2-0.4,0.5-0.7,0.7-0.9c0.7,0.4,1.4,0.7,2.3,0.9c0.8,0.3,1.7,0.4,2.6,0.4
				c1.2,0,2.2-0.2,3-0.6c0.7-0.4,1.1-1.1,1.1-2v-0.6c-0.9,0.4-2.1,0.6-3.5,0.6c-1,0-2-0.2-3-0.5c-0.9-0.3-1.8-0.8-2.5-1.5
				c-0.7-0.7-1.3-1.5-1.7-2.5c-0.4-1-0.6-2.3-0.6-3.7c0-1.4,0.2-2.6,0.7-3.7c0.5-1,1.1-1.9,1.9-2.6c0.8-0.7,1.7-1.2,2.8-1.5
				C-41.2,28.8-40,28.6-38.7,28.6z M-36.5,33.6c-0.2-0.1-0.4-0.2-0.7-0.3c-0.3-0.1-0.7-0.1-1.2-0.1c-1.1,0-2,0.3-2.5,1
				c-0.6,0.6-0.9,1.5-0.9,2.7c0,1.3,0.3,2.3,0.9,2.9c0.6,0.6,1.3,0.9,2.2,0.9c0.9,0,1.7-0.2,2.3-0.7V33.6z"/>
			<path class="st0" d="M-21.3,28.6c1.2,0,2.4,0.1,3.4,0.4c1,0.3,1.9,0.6,2.6,1.2c0.7,0.5,1.3,1.2,1.7,2c0.4,0.8,0.6,1.7,0.6,2.8
				v7.8c0,0.6-0.2,1.1-0.5,1.5c-0.3,0.4-0.7,0.7-1.2,1c-1.5,0.9-3.6,1.4-6.3,1.4c-1.2,0-2.3-0.1-3.3-0.3c-1-0.2-1.8-0.6-2.5-1
				c-0.7-0.5-1.2-1.1-1.6-1.8c-0.4-0.7-0.6-1.5-0.6-2.5c0-1.6,0.5-2.8,1.4-3.7c0.9-0.9,2.4-1.4,4.4-1.6l4.5-0.5v-0.2
				c0-0.7-0.3-1.2-0.9-1.4c-0.6-0.3-1.4-0.4-2.5-0.4c-0.9,0-1.7,0.1-2.6,0.3c-0.8,0.2-1.6,0.4-2.3,0.7c-0.3-0.2-0.6-0.5-0.8-1
				c-0.2-0.4-0.3-0.9-0.3-1.3c0-0.6,0.1-1.1,0.4-1.4c0.3-0.4,0.7-0.7,1.3-0.9c0.7-0.3,1.5-0.4,2.4-0.6C-23,28.7-22.1,28.6-21.3,28.6
				z M-21,42.2c0.4,0,0.8,0,1.3-0.1c0.5-0.1,0.8-0.2,1.1-0.3V39l-2.5,0.2c-0.6,0-1.2,0.2-1.6,0.4c-0.4,0.2-0.6,0.6-0.6,1
				c0,0.5,0.2,0.8,0.5,1.1C-22.5,42.1-21.9,42.2-21,42.2z"/>
		</g>
	</g>
	<g>
		<g>
			<g>
				<path class="st0" d="M-111.4,57.6c-7.7,0-13.6-4.9-19.3-9.7c-8.1-6.7-15.8-13.1-29-6.8c-0.8,0.4-1.7,0.3-2.4-0.3
					c-0.7-0.5-1-1.4-0.8-2.2C-161,28.5-151.1,8.8-150.7,8c0.3-0.5,0.7-0.9,1.3-1.1c29.7-9.8,39.3,13.6,39.4,13.9
					c0.5,1.2-0.1,2.5-1.3,3c-1.2,0.5-2.5-0.1-3-1.3c-0.3-0.8-8-19.1-32.8-11.5c-1.6,3.3-7.6,15.6-10.3,24.3
					c13.3-4.3,21.9,2.8,29.6,9.2c7.1,5.9,13.2,11,22.4,7.4c1.2-0.5,2.5,0.1,3,1.3c0.5,1.2-0.1,2.5-1.3,3
					C-106.5,57.1-109,57.6-111.4,57.6z"/>
			</g>
		</g>
		<g>
			<path class="st0" d="M-131.6,26.5c-0.6-0.5-1.1-0.9-1.5-1.3c-0.4-0.4-0.8-0.9-1.1-1.3c-0.3-0.5-0.4-1-0.5-1.5
				c-0.1-0.5,0-1.1,0.3-1.8c0.4-1,1-1.7,1.8-2.2c0.9-0.5,1.9-0.6,3.2-0.5l0.6-1.8c0.1,0,0.4,0.1,0.7,0.1c0.3,0.1,0.6,0.1,0.9,0.2
				c0.6,0.2,1,0.5,1.2,0.8c0.3,0.3,0.3,0.8,0,1.4l-0.1,0.3c0.9,0.4,1.5,0.9,2,1.5c0.4,0.6,0.5,1.1,0.3,1.8c-0.1,0.4-0.3,0.7-0.6,0.9
				c-0.3,0.2-0.6,0.4-0.9,0.5c-0.2-0.3-0.6-0.7-1.1-1c-0.5-0.4-1.1-0.6-1.7-0.9c-0.7-0.2-1.2-0.3-1.6-0.2c-0.4,0.1-0.6,0.3-0.7,0.5
				c-0.1,0.2,0,0.4,0.1,0.6c0.1,0.2,0.4,0.4,0.7,0.7l1,0.8c1.2,0.9,2.1,1.9,2.6,2.8c0.5,1,0.5,2,0.1,3.2c-0.4,1-1,1.7-1.9,2.2
				c-0.9,0.5-2,0.6-3.3,0.4l-0.6,1.8c-0.1,0-0.4-0.1-0.7-0.1c-0.3-0.1-0.6-0.1-0.9-0.2c-0.6-0.2-1-0.5-1.2-0.8
				c-0.3-0.3-0.3-0.8,0-1.4l0.1-0.2c-0.5-0.2-1-0.5-1.3-0.8c-0.4-0.3-0.7-0.6-0.9-0.9c-0.2-0.3-0.4-0.7-0.5-1
				c-0.1-0.3-0.1-0.7,0.1-1c0.2-0.4,0.4-0.7,0.8-1c0.4-0.2,0.7-0.3,1.1-0.4c0.3,0.5,0.7,0.9,1.2,1.4c0.5,0.5,1.1,0.8,1.8,1.1
				c0.7,0.3,1.3,0.3,1.6,0.2c0.4-0.1,0.6-0.3,0.7-0.6c0.1-0.3,0.1-0.6-0.1-0.8c-0.2-0.2-0.5-0.5-0.8-0.8L-131.6,26.5z"/>
		</g>
	</g>
</g>
<g>
	<g>
		<path class="st1" d="M57.2,33.2c-0.6,0-1.1,0.1-1.6,0.3c-0.5,0.2-1,0.4-1.3,0.8c-0.4,0.4-0.7,0.8-0.9,1.3
			c-0.2,0.5-0.3,1.1-0.3,1.8c0,1.4,0.4,2.5,1.2,3.2c0.8,0.7,1.8,1.1,2.9,1.1c0.7,0,1.3-0.1,1.8-0.2c0.5-0.2,0.9-0.3,1.3-0.5
			c0.5,0.3,0.8,0.7,1,1c0.2,0.4,0.3,0.8,0.3,1.3c0,0.9-0.4,1.6-1.3,2.2c-0.9,0.5-2.1,0.8-3.7,0.8c-1.4,0-2.7-0.2-3.9-0.6
			c-1.2-0.4-2.1-1-3-1.8c-0.8-0.8-1.5-1.7-1.9-2.7c-0.5-1.1-0.7-2.2-0.7-3.5c0-1.5,0.2-2.8,0.7-3.9c0.5-1.1,1.1-2,2-2.8
			c0.8-0.7,1.8-1.3,2.9-1.6c1.1-0.4,2.3-0.5,3.5-0.5c1.6,0,2.9,0.3,3.8,0.9c0.9,0.6,1.3,1.3,1.3,2.3c0,0.4-0.1,0.8-0.3,1.2
			c-0.2,0.4-0.4,0.7-0.7,1c-0.4-0.2-0.8-0.4-1.4-0.5C58.4,33.3,57.9,33.2,57.2,33.2z"/>
		<path class="st1" d="M69.3,40c0,0.6,0.2,1,0.6,1.3c0.4,0.2,0.9,0.4,1.6,0.4c0.3,0,0.7,0,1.1-0.1c0.4-0.1,0.7-0.1,1-0.2
			c0.2,0.2,0.4,0.5,0.5,0.8c0.1,0.3,0.2,0.7,0.2,1.1c0,0.9-0.3,1.6-1,2.1c-0.6,0.5-1.8,0.8-3.4,0.8c-2,0-3.5-0.5-4.6-1.4
			c-1.1-0.9-1.6-2.4-1.6-4.4V25.9c0.2-0.1,0.6-0.1,1.1-0.2c0.5-0.1,1-0.1,1.5-0.1c1,0,1.8,0.2,2.3,0.5c0.6,0.4,0.8,1.1,0.8,2.2v2.2
			h4.5c0.1,0.2,0.3,0.6,0.4,0.9c0.1,0.4,0.2,0.8,0.2,1.2c0,0.8-0.2,1.4-0.5,1.7c-0.4,0.4-0.8,0.5-1.4,0.5h-3.1V40z"/>
		<path class="st1" d="M90.5,28.7c1.4,0,2.6,0.2,3.8,0.5c1.2,0.4,2.2,0.9,3,1.6c0.8,0.7,1.5,1.6,2,2.7c0.5,1.1,0.7,2.4,0.7,3.9
			c0,1.5-0.2,2.7-0.6,3.8c-0.4,1.1-1,2-1.7,2.7c-0.7,0.7-1.6,1.3-2.7,1.6c-1.1,0.4-2.2,0.5-3.5,0.5c-1,0-1.9-0.1-2.7-0.4v5.6
			c-0.2,0.1-0.6,0.1-1.1,0.2c-0.5,0.1-1,0.1-1.5,0.1c-0.5,0-0.9,0-1.3-0.1c-0.4-0.1-0.7-0.2-1-0.4c-0.3-0.2-0.5-0.5-0.6-0.8
			C83,50,82.9,49.6,82.9,49V32.7c0-0.6,0.1-1.1,0.4-1.5c0.3-0.4,0.6-0.7,1.1-1.1c0.7-0.5,1.6-0.8,2.6-1.1
			C88,28.8,89.2,28.7,90.5,28.7z M90.5,41.6c2.3,0,3.5-1.4,3.5-4.2c0-1.4-0.3-2.5-0.9-3.2c-0.6-0.7-1.4-1.1-2.5-1.1
			c-0.4,0-0.8,0.1-1.2,0.2c-0.3,0.1-0.6,0.2-0.9,0.4v7.5c0.3,0.1,0.6,0.3,0.9,0.3C89.8,41.6,90.2,41.6,90.5,41.6z"/>
		<path class="st1" d="M108.6,28.7c1.2,0,2.3,0.1,3.3,0.4c1,0.2,1.9,0.6,2.6,1.1c0.7,0.5,1.3,1.2,1.6,1.9c0.4,0.8,0.6,1.7,0.6,2.8
			v7.6c0,0.6-0.2,1.1-0.5,1.4c-0.3,0.4-0.7,0.7-1.2,1c-1.5,0.9-3.5,1.3-6.2,1.3c-1.2,0-2.3-0.1-3.2-0.3c-1-0.2-1.8-0.6-2.5-1
			c-0.7-0.5-1.2-1-1.6-1.7c-0.4-0.7-0.6-1.5-0.6-2.4c0-1.6,0.5-2.8,1.4-3.6c0.9-0.8,2.4-1.4,4.3-1.6l4.5-0.5v-0.2
			c0-0.7-0.3-1.1-0.9-1.4c-0.6-0.3-1.4-0.4-2.5-0.4c-0.9,0-1.7,0.1-2.5,0.3c-0.8,0.2-1.6,0.4-2.2,0.7c-0.3-0.2-0.5-0.5-0.7-0.9
			c-0.2-0.4-0.3-0.9-0.3-1.3c0-0.6,0.1-1.1,0.4-1.4c0.3-0.4,0.7-0.7,1.3-0.9c0.7-0.2,1.4-0.4,2.3-0.5
			C107,28.7,107.8,28.7,108.6,28.7z M108.9,42c0.4,0,0.8,0,1.3-0.1c0.5-0.1,0.8-0.2,1-0.3v-2.7l-2.4,0.2c-0.6,0-1.2,0.2-1.6,0.4
			c-0.4,0.2-0.6,0.6-0.6,1c0,0.5,0.2,0.8,0.5,1.1C107.5,41.9,108,42,108.9,42z"/>
		<path class="st1" d="M127.3,28.7c1.3,0,2.5,0.2,3.5,0.5c1.1,0.3,1.9,0.8,2.7,1.3c0.5,0.3,0.8,0.7,1.1,1.1c0.3,0.4,0.4,0.9,0.4,1.5
			v11.9c0,1.2-0.2,2.2-0.7,3.1c-0.5,0.9-1.1,1.6-1.9,2.2c-0.8,0.6-1.7,1-2.8,1.3c-1.1,0.3-2.2,0.4-3.4,0.4c-2.1,0-3.7-0.3-4.9-0.8
			c-1.2-0.6-1.8-1.5-1.8-2.7c0-0.5,0.1-1,0.3-1.4c0.2-0.4,0.5-0.7,0.7-0.9c0.7,0.4,1.4,0.7,2.2,0.9c0.8,0.2,1.7,0.4,2.6,0.4
			c1.2,0,2.2-0.2,2.9-0.6c0.7-0.4,1.1-1.1,1.1-2v-0.5c-0.9,0.4-2.1,0.6-3.4,0.6c-1,0-2-0.2-2.9-0.5c-0.9-0.3-1.7-0.8-2.4-1.4
			c-0.7-0.6-1.2-1.5-1.7-2.5c-0.4-1-0.6-2.2-0.6-3.6c0-1.4,0.2-2.6,0.7-3.6c0.4-1,1.1-1.9,1.8-2.5c0.8-0.7,1.7-1.2,2.8-1.5
			C124.9,28.8,126.1,28.7,127.3,28.7z M129.5,33.6c-0.2-0.1-0.4-0.2-0.7-0.3c-0.3-0.1-0.7-0.1-1.1-0.1c-1.1,0-1.9,0.3-2.5,0.9
			c-0.6,0.6-0.8,1.5-0.8,2.7c0,1.3,0.3,2.3,0.8,2.8c0.6,0.6,1.3,0.9,2.1,0.9c0.9,0,1.7-0.2,2.2-0.6V33.6z"/>
		<path class="st1" d="M144.3,28.7c1.2,0,2.3,0.1,3.3,0.4c1,0.2,1.9,0.6,2.6,1.1c0.7,0.5,1.3,1.2,1.6,1.9c0.4,0.8,0.6,1.7,0.6,2.8
			v7.6c0,0.6-0.2,1.1-0.5,1.4c-0.3,0.4-0.7,0.7-1.2,1c-1.5,0.9-3.5,1.3-6.2,1.3c-1.2,0-2.3-0.1-3.2-0.3c-1-0.2-1.8-0.6-2.5-1
			c-0.7-0.5-1.2-1-1.6-1.7c-0.4-0.7-0.6-1.5-0.6-2.4c0-1.6,0.5-2.8,1.4-3.6c0.9-0.8,2.4-1.4,4.3-1.6l4.5-0.5v-0.2
			c0-0.7-0.3-1.1-0.9-1.4c-0.6-0.3-1.4-0.4-2.5-0.4c-0.9,0-1.7,0.1-2.5,0.3c-0.8,0.2-1.6,0.4-2.2,0.7c-0.3-0.2-0.5-0.5-0.7-0.9
			c-0.2-0.4-0.3-0.9-0.3-1.3c0-0.6,0.1-1.1,0.4-1.4c0.3-0.4,0.7-0.7,1.3-0.9c0.7-0.2,1.4-0.4,2.3-0.5
			C142.7,28.7,143.5,28.7,144.3,28.7z M144.6,42c0.4,0,0.8,0,1.3-0.1c0.5-0.1,0.8-0.2,1-0.3v-2.7l-2.4,0.2c-0.6,0-1.2,0.2-1.6,0.4
			c-0.4,0.2-0.6,0.6-0.6,1c0,0.5,0.2,0.8,0.5,1.1C143.2,41.9,143.8,42,144.6,42z"/>
	</g>
	<g>
		<g>
			<g>
				<path class="st2" d="M56.1,57c-7.6,0-13.3-4.8-19-9.5c-7.9-6.6-15.5-12.9-28.4-6.7c-0.8,0.4-1.7,0.3-2.3-0.3
					c-0.7-0.5-1-1.4-0.8-2.2c1.9-9.9,11.6-29.2,12-30c0.3-0.5,0.7-0.9,1.3-1.1c29.1-9.6,38.5,13.3,38.6,13.6
					c0.5,1.2-0.1,2.5-1.3,2.9c-1.1,0.5-2.4-0.1-2.9-1.3C53,21.8,45.4,3.8,21.2,11.3c-1.6,3.2-7.4,15.3-10.1,23.8
					c13.1-4.2,21.5,2.8,29,9c6.9,5.8,12.9,10.7,21.9,7.3c1.2-0.4,2.5,0.1,2.9,1.3c0.4,1.2-0.1,2.5-1.3,2.9
					C60.9,56.6,58.4,57,56.1,57z"/>
			</g>
		</g>
		<g>
			<path class="st2" d="M36.3,26.6c-0.6-0.4-1.1-0.9-1.5-1.3c-0.4-0.4-0.8-0.8-1.1-1.3c-0.3-0.5-0.4-0.9-0.5-1.5
				c-0.1-0.5,0-1.1,0.3-1.7c0.4-1,1-1.7,1.8-2.2c0.8-0.5,1.9-0.6,3.1-0.4l0.6-1.8c0.1,0,0.4,0.1,0.6,0.1c0.3,0.1,0.6,0.1,0.9,0.2
				c0.6,0.2,1,0.5,1.2,0.8c0.2,0.3,0.3,0.8,0,1.4l-0.1,0.3c0.9,0.4,1.5,0.9,1.9,1.5c0.4,0.5,0.5,1.1,0.3,1.7
				c-0.1,0.4-0.3,0.7-0.6,0.9c-0.3,0.2-0.6,0.4-0.9,0.5c-0.2-0.3-0.6-0.6-1.1-1c-0.5-0.3-1-0.6-1.7-0.9c-0.7-0.2-1.2-0.3-1.5-0.2
				c-0.4,0.1-0.6,0.2-0.7,0.5c-0.1,0.2,0,0.4,0.1,0.6c0.1,0.2,0.4,0.4,0.7,0.7l1,0.8c1.2,0.9,2.1,1.8,2.5,2.8c0.5,0.9,0.5,2,0.1,3.1
				c-0.4,1-1,1.7-1.8,2.2c-0.9,0.5-1.9,0.6-3.2,0.4l-0.6,1.7c-0.1,0-0.4-0.1-0.6-0.1c-0.3-0.1-0.6-0.1-0.9-0.2
				c-0.6-0.2-1-0.5-1.2-0.8c-0.2-0.3-0.3-0.8,0-1.4l0.1-0.2c-0.5-0.2-0.9-0.5-1.3-0.8c-0.4-0.3-0.7-0.6-0.9-0.9
				c-0.2-0.3-0.4-0.6-0.5-1c-0.1-0.3-0.1-0.7,0.1-1c0.2-0.4,0.4-0.7,0.8-0.9c0.4-0.2,0.7-0.3,1-0.4c0.3,0.5,0.7,0.9,1.2,1.4
				c0.5,0.4,1.1,0.8,1.8,1c0.7,0.3,1.2,0.3,1.6,0.2c0.4-0.1,0.6-0.3,0.7-0.6c0.1-0.3,0.1-0.6-0.1-0.8c-0.2-0.2-0.5-0.5-0.8-0.8
				L36.3,26.6z"/>
		</g>
	</g>
</g>
</svg>
